<svg xmlns="http://www.w3.org/2000/svg" viewBox="0 0 1000 1000" width="1000" height="1000">
	<style>
		tspan { white-space:pre }
		.shp0 { fill: #ffffff;stroke: #3b3b3b;stroke-width: 17 } 
		.shp1 { fill: none;stroke: #3b3b3b;stroke-width: 17 } 
		.shp2 { fill: #3b3b3b;stroke: #3b3b3b;stroke-width: 13 } 
		.shp3 { fill: #3b3b3b;stroke: #3b3b3b;stroke-width: 0 } 
		.shp4 { fill: #3b3b3b;stroke: #3b3b3b;stroke-width: 17 } 
	</style>
	<path id="Layer 1" class="shp0" d="" />
	<g id="Folder 2">
		<path id="Shape 3" class="shp1" d="M639.6 246.23C639.6 246.23 613.58 312.15 767.96 312.24C912.8 312.31 899.79 250.56 899.79 250.56" />
		<path id="Shape 3" class="shp0" d="" />
		<path id="Shape 3" class="shp1" d="M635.27 197.66C634.83 197.27 602.31 228.83 620.52 234.95C638.73 241.07 633.1 259.62 644.81 257.5C656.51 261.02 656.51 282.61 674.29 273.11C692.07 263.62 701.61 281.74 714.19 270.51C726.76 259.28 726.33 265.69 743.68 272.25C761.02 278.8 751.48 280.87 781.84 268.78C812.63 270.99 790.08 281.74 814.79 275.71C839.51 269.69 829.97 267.86 855.56 268.78C881.14 269.69 888.08 269.6 895.45 247.96C919.3 243.67 931.45 249.21 922.34 231.48C913.23 213.75 906.73 201.99 906.73 201.99" />
		<path id="Layer 3" class="shp1" d="M634.4 202.86" />
		<path id="Shape 3" class="shp1" d="M642.2 180.31C642.2 180.31 652.45 117 772.3 117C892.14 117 901.52 178.58 901.52 178.58C901.52 178.58 908.5 218.47 769.7 218.47C630.89 218.47 642.2 180.31 642.2 180.31Z" />
		<path id="Layer 2" class="shp2" d="M641.34 187.3C641.34 187.3 588.43 250.56 771.86 249.31C955.3 248.06 898.92 185.52 898.92 185.52C898.92 185.52 879 220.97 771 220.11C646 219.11 641.34 187.3 641.34 187.3Z" />
		<path id="Layer 4" class="shp1" d="" />
		<path id="Shape 3" class="shp3" d="M712.23 157.89C710.77 156.61 712.1 152.73 715.2 149.19C718.3 145.66 721.98 143.83 723.44 145.11C724.89 146.39 723.56 150.27 720.46 153.81C717.37 157.34 713.68 159.17 712.23 157.89Z" />
		<path id="Shape 3 copy" class="shp3" d="M739.23 149.89C737.77 148.61 739.1 144.73 742.2 141.19C745.3 137.66 748.98 135.83 750.44 137.11C751.89 138.39 750.56 142.27 747.46 145.81C744.37 149.34 740.68 151.17 739.23 149.89Z" />
		<path id="Shape 3 copy 2" class="shp3" d="M742.23 185.89C740.77 184.61 742.1 180.73 745.2 177.19C748.3 173.66 751.98 171.83 753.44 173.11C754.89 174.39 753.56 178.27 750.46 181.81C747.37 185.34 743.68 187.17 742.23 185.89Z" />
		<path id="Shape 3 copy 3" class="shp3" d="M767.23 176.89C765.77 175.61 767.1 171.73 770.2 168.19C773.3 164.66 776.98 162.83 778.44 164.11C779.89 165.39 778.56 169.27 775.46 172.81C772.37 176.34 768.68 178.17 767.23 176.89Z" />
		<path id="Shape 3 copy 4" class="shp3" d="M749.23 161.89C747.77 160.61 749.1 156.73 752.2 153.19C755.3 149.66 758.98 147.83 760.44 149.11C761.89 150.39 760.56 154.27 757.46 157.81C754.37 161.34 750.68 163.17 749.23 161.89Z" />
		<path id="Shape 3 copy 5" class="shp3" d="M776.23 153.89C774.77 152.61 776.1 148.73 779.2 145.19C782.3 141.66 785.98 139.83 787.44 141.11C788.89 142.39 787.56 146.27 784.46 149.81C781.37 153.34 777.68 155.17 776.23 153.89Z" />
		<path id="Shape 3 copy 6" class="shp3" d="M779.23 189.89C777.77 188.61 779.1 184.73 782.2 181.19C785.3 177.66 788.98 175.83 790.44 177.11C791.89 178.39 790.56 182.27 787.46 185.81C784.37 189.34 780.68 191.17 779.23 189.89Z" />
		<path id="Shape 3 copy 7" class="shp3" d="M804.23 180.89C802.77 179.61 804.1 175.73 807.2 172.19C810.3 168.66 813.98 166.83 815.44 168.11C816.89 169.39 815.56 173.27 812.46 176.81C809.37 180.34 805.68 182.17 804.23 180.89Z" />
		<path id="Shape 3 copy 8" class="shp3" d="M749.23 161.89C747.77 160.61 749.1 156.73 752.2 153.19C755.3 149.66 758.98 147.83 760.44 149.11C761.89 150.39 760.56 154.27 757.46 157.81C754.37 161.34 750.68 163.17 749.23 161.89Z" />
		<path id="Shape 3 copy 9" class="shp3" d="M776.23 153.89C774.77 152.61 776.1 148.73 779.2 145.19C782.3 141.66 785.98 139.83 787.44 141.11C788.89 142.39 787.56 146.27 784.46 149.81C781.37 153.34 777.68 155.17 776.23 153.89Z" />
		<path id="Shape 3 copy 12" class="shp3" d="M796.23 164.89C794.77 163.61 796.1 159.73 799.2 156.19C802.3 152.66 805.98 150.83 807.44 152.11C808.89 153.39 807.56 157.27 804.46 160.81C801.37 164.34 797.68 166.17 796.23 164.89Z" />
		<path id="Shape 3 copy 13" class="shp3" d="M823.23 156.89C821.77 155.61 823.1 151.73 826.2 148.19C829.3 144.66 832.98 142.83 834.44 144.11C835.89 145.39 834.56 149.27 831.46 152.81C828.37 156.34 824.68 158.17 823.23 156.89Z" />
		<path id="Shape 3 copy 14" class="shp3" d="M826.23 187.89C824.77 186.61 826.1 182.73 829.2 179.19C832.3 175.66 835.98 173.83 837.44 175.11C838.89 176.39 837.56 180.27 834.46 183.81C831.37 187.34 827.68 189.17 826.23 187.89Z" />
		<path id="Shape 3 copy 15" class="shp3" d="M853.23 179.89C851.77 178.61 853.1 174.73 856.2 171.19C859.3 167.66 862.98 165.83 864.44 167.11C865.89 168.39 864.56 172.27 861.46 175.81C858.37 179.34 854.68 181.17 853.23 179.89Z" />
		<path id="Shape 3 copy 16" class="shp3" d="M691.23 185.89C689.77 184.61 691.1 180.73 694.2 177.19C697.3 173.66 700.98 171.83 702.44 173.11C703.89 174.39 702.56 178.27 699.46 181.81C696.37 185.34 692.68 187.17 691.23 185.89Z" />
		<path id="Shape 3 copy 17" class="shp3" d="M718.23 177.89C716.77 176.61 718.1 172.73 721.2 169.19C724.3 165.66 727.98 163.83 729.44 165.11C730.89 166.39 729.56 170.27 726.46 173.81C723.37 177.34 719.68 179.17 718.23 177.89Z" />
		<path id="Shape 3 copy 10" class="shp3" d="M779.23 189.89C777.77 188.61 779.1 184.73 782.2 181.19C785.3 177.66 788.98 175.83 790.44 177.11C791.89 178.39 790.56 182.27 787.46 185.81C784.37 189.34 780.68 191.17 779.23 189.89Z" />
		<path id="Shape 3 copy 11" class="shp3" d="M804.23 180.89C802.77 179.61 804.1 175.73 807.2 172.19C810.3 168.66 813.98 166.83 815.44 168.11C816.89 169.39 815.56 173.27 812.46 176.81C809.37 180.34 805.68 182.17 804.23 180.89Z" />
	</g>
	<g id="Folder 2 copy 2">
		<path id="Shape 3" class="shp1" d="M99.6 810.23C99.6 810.23 73.58 876.15 227.96 876.24C372.8 876.31 359.79 814.56 359.79 814.56" />
		<path id="Shape 3" class="shp0" d="" />
		<path id="Shape 3" class="shp1" d="M95.27 761.66C94.83 761.27 62.31 792.83 80.52 798.95C98.73 805.07 93.1 823.62 104.81 821.5C116.51 825.02 116.51 846.61 134.29 837.11C152.07 827.62 161.61 845.74 174.19 834.51C186.76 823.28 186.33 829.69 203.68 836.25C221.02 842.8 211.48 844.87 241.84 832.78C272.63 834.99 250.08 845.74 274.79 839.71C299.51 833.69 289.97 831.86 315.56 832.78C341.14 833.69 348.08 833.6 355.45 811.96C379.3 807.67 391.45 813.21 382.34 795.48C373.23 777.75 366.73 765.99 366.73 765.99" />
		<path id="Layer 3" class="shp1" d="M94.4 766.86" />
		<path id="Shape 3" class="shp1" d="M102.2 744.31C102.2 744.31 112.45 681 232.3 681C352.14 681 361.52 742.58 361.52 742.58C361.52 742.58 368.5 782.47 229.7 782.47C90.89 782.47 102.2 744.31 102.2 744.31Z" />
		<path id="Layer 2" class="shp2" d="M101.34 751.3C101.34 751.3 48.43 814.56 231.86 813.31C415.3 812.06 358.92 749.52 358.92 749.52C358.92 749.52 339 784.97 231 784.11C106 783.11 101.34 751.3 101.34 751.3Z" />
		<path id="Layer 4" class="shp1" d="" />
		<path id="Shape 3" class="shp3" d="M172.23 721.89C170.77 720.61 172.1 716.73 175.2 713.19C178.3 709.66 181.98 707.83 183.44 709.11C184.89 710.39 183.56 714.27 180.46 717.81C177.37 721.34 173.68 723.17 172.23 721.89Z" />
		<path id="Shape 3 copy" class="shp3" d="M199.23 713.89C197.77 712.61 199.1 708.73 202.2 705.19C205.3 701.66 208.98 699.83 210.44 701.11C211.89 702.39 210.56 706.27 207.46 709.81C204.37 713.34 200.68 715.17 199.23 713.89Z" />
		<path id="Shape 3 copy 2" class="shp3" d="M202.23 749.89C200.77 748.61 202.1 744.73 205.2 741.19C208.3 737.66 211.98 735.83 213.44 737.11C214.89 738.39 213.56 742.27 210.46 745.81C207.37 749.34 203.68 751.17 202.23 749.89Z" />
		<path id="Shape 3 copy 3" class="shp3" d="M227.23 740.89C225.77 739.61 227.1 735.73 230.2 732.19C233.3 728.66 236.98 726.83 238.44 728.11C239.89 729.39 238.56 733.27 235.46 736.81C232.37 740.34 228.68 742.17 227.23 740.89Z" />
		<path id="Shape 3 copy 4" class="shp3" d="M209.23 725.89C207.77 724.61 209.1 720.73 212.2 717.19C215.3 713.66 218.98 711.83 220.44 713.11C221.89 714.39 220.56 718.27 217.46 721.81C214.37 725.34 210.68 727.17 209.23 725.89Z" />
		<path id="Shape 3 copy 5" class="shp3" d="M236.23 717.89C234.77 716.61 236.1 712.73 239.2 709.19C242.3 705.66 245.98 703.83 247.44 705.11C248.89 706.39 247.56 710.27 244.46 713.81C241.37 717.34 237.68 719.17 236.23 717.89Z" />
		<path id="Shape 3 copy 6" class="shp3" d="M239.23 753.89C237.77 752.61 239.1 748.73 242.2 745.19C245.3 741.66 248.98 739.83 250.44 741.11C251.89 742.39 250.56 746.27 247.46 749.81C244.37 753.34 240.68 755.17 239.23 753.89Z" />
		<path id="Shape 3 copy 7" class="shp3" d="M264.23 744.89C262.77 743.61 264.1 739.73 267.2 736.19C270.3 732.66 273.98 730.83 275.44 732.11C276.89 733.39 275.56 737.27 272.46 740.81C269.37 744.34 265.68 746.17 264.23 744.89Z" />
		<path id="Shape 3 copy 8" class="shp3" d="M209.23 725.89C207.77 724.61 209.1 720.73 212.2 717.19C215.3 713.66 218.98 711.83 220.44 713.11C221.89 714.39 220.56 718.27 217.46 721.81C214.37 725.34 210.68 727.17 209.23 725.89Z" />
		<path id="Shape 3 copy 9" class="shp3" d="M236.23 717.89C234.77 716.61 236.1 712.73 239.2 709.19C242.3 705.66 245.98 703.83 247.44 705.11C248.89 706.39 247.56 710.27 244.46 713.81C241.37 717.34 237.68 719.17 236.23 717.89Z" />
		<path id="Shape 3 copy 12" class="shp3" d="M256.23 728.89C254.77 727.61 256.1 723.73 259.2 720.19C262.3 716.66 265.98 714.83 267.44 716.11C268.89 717.39 267.56 721.27 264.46 724.81C261.37 728.34 257.68 730.17 256.23 728.89Z" />
		<path id="Shape 3 copy 13" class="shp3" d="M283.23 720.89C281.77 719.61 283.1 715.73 286.2 712.19C289.3 708.66 292.98 706.83 294.44 708.11C295.89 709.39 294.56 713.27 291.46 716.81C288.37 720.34 284.68 722.17 283.23 720.89Z" />
		<path id="Shape 3 copy 14" class="shp3" d="M286.23 751.89C284.77 750.61 286.1 746.73 289.2 743.19C292.3 739.66 295.98 737.83 297.44 739.11C298.89 740.39 297.56 744.27 294.46 747.81C291.37 751.34 287.68 753.17 286.23 751.89Z" />
		<path id="Shape 3 copy 15" class="shp3" d="M313.23 743.89C311.77 742.61 313.1 738.73 316.2 735.19C319.3 731.66 322.98 729.83 324.44 731.11C325.89 732.39 324.56 736.27 321.46 739.81C318.37 743.34 314.68 745.17 313.23 743.89Z" />
		<path id="Shape 3 copy 16" class="shp3" d="M151.23 749.89C149.77 748.61 151.1 744.73 154.2 741.19C157.3 737.66 160.98 735.83 162.44 737.11C163.89 738.39 162.56 742.27 159.46 745.81C156.37 749.34 152.68 751.17 151.23 749.89Z" />
		<path id="Shape 3 copy 17" class="shp3" d="M178.23 741.89C176.77 740.61 178.1 736.73 181.2 733.19C184.3 729.66 187.98 727.83 189.44 729.11C190.89 730.39 189.56 734.27 186.46 737.81C183.37 741.34 179.68 743.17 178.23 741.89Z" />
		<path id="Shape 3 copy 10" class="shp3" d="M239.23 753.89C237.77 752.61 239.1 748.73 242.2 745.19C245.3 741.66 248.98 739.83 250.44 741.11C251.89 742.39 250.56 746.27 247.46 749.81C244.37 753.34 240.68 755.17 239.23 753.89Z" />
		<path id="Shape 3 copy 11" class="shp3" d="M264.23 744.89C262.77 743.61 264.1 739.73 267.2 736.19C270.3 732.66 273.98 730.83 275.44 732.11C276.89 733.39 275.56 737.27 272.46 740.81C269.37 744.34 265.68 746.17 264.23 744.89Z" />
	</g>
	<g id="Folder 1">
		<path id="Shape 2" class="shp1" d="M117.57 238.57L228.28 127.85" />
		<path id="Shape 2 copy" class="shp1" d="M139.02 260.02L265.82 133.22" />
		<path id="Shape 2 copy 2" class="shp1" d="M159.43 280.43L276.6 163.72" />
		<path id="Shape 2 copy 3" class="shp1" d="M180.53 301.54L307.34 174.73" />
		<path id="Shape 2 copy 4" class="shp1" d="M201.99 322.99L312.7 212.27" />
		<path id="Shape 2 copy 5" class="shp1" d="M222.4 343.4L321 244.66" />
		<path id="Shape 1" class="shp1" d="M52.87 200.86L203.02 50.7C212.59 41.13 228.05 41.13 237.62 50.7L387.43 200.51L435.87 248.95C445.43 258.51 445.43 273.98 435.87 283.55L285.71 433.7C276.15 443.27 260.68 443.27 251.11 433.7L52.87 235.45C43.3 225.89 43.3 210.42 52.87 200.86Z" />
		<path id="Shape 3" class="shp1" d="M301 52" />
		<path id="Shape 3" class="shp1" d="" />
		<path id="Shape 3" class="shp1" d="" />
		<path id="Shape 3" class="shp1" d="" />
		<path id="Shape 3" class="shp1" d="" />
		<path id="Shape 2" class="shp0" d="M325.6 66.68L332.26 65.61C335.32 65.12 338.28 67.69 338.86 71.35L361.26 211.47C361.84 215.13 359.84 218.49 356.77 218.98L350.11 220.04C347.04 220.53 344.09 217.97 343.5 214.3L321.11 74.19C320.52 70.53 322.53 67.17 325.6 66.68Z" />
		<path id="Shape 2" class="shp1" d="M354.61 238.13L345.09 224.46C343.99 222.9 344.44 221.42 346.08 221.16L360.4 218.87C362.03 218.61 362.92 219.88 362.37 221.7L357.57 237.65C357.03 239.48 355.7 239.69 354.61 238.13Z" />
	</g>
	<g id="Folder 1 copy">
		<path id="Shape 2" class="shp1" d="M117.57 238.57L228.28 127.85" />
		<path id="Shape 2 copy" class="shp1" d="M139.02 260.02L265.82 133.22" />
		<path id="Shape 2 copy 2" class="shp1" d="M159.43 280.43L276.6 163.72" />
		<path id="Shape 2 copy 3" class="shp1" d="M180.53 301.54L307.34 174.73" />
		<path id="Shape 2 copy 4" class="shp1" d="M201.99 322.99L312.7 212.27" />
		<path id="Shape 2 copy 5" class="shp1" d="M222.4 343.4L321 244.66" />
		<path id="Shape 1" class="shp1" d="M52.87 200.86L203.02 50.7C212.59 41.13 228.05 41.13 237.62 50.7L387.43 200.51L435.87 248.95C445.43 258.51 445.43 273.98 435.87 283.55L285.71 433.7C276.15 443.27 260.68 443.27 251.11 433.7L52.87 235.45C43.3 225.89 43.3 210.42 52.87 200.86Z" />
		<path id="Shape 3" class="shp1" d="M301 52" />
		<path id="Shape 3" class="shp1" d="" />
		<path id="Shape 3" class="shp1" d="" />
		<path id="Shape 3" class="shp1" d="" />
		<path id="Shape 3" class="shp1" d="" />
		<path id="Shape 2" class="shp0" d="M325.6 66.68L332.26 65.61C335.32 65.12 338.28 67.69 338.86 71.35L361.26 211.47C361.84 215.13 359.84 218.49 356.77 218.98L350.11 220.04C347.04 220.53 344.09 217.97 343.5 214.3L321.11 74.19C320.52 70.53 322.53 67.17 325.6 66.68Z" />
		<path id="Shape 2" class="shp1" d="M354.61 238.13L345.09 224.46C343.99 222.9 344.44 221.42 346.08 221.16L360.4 218.87C362.03 218.61 362.92 219.88 362.37 221.7L357.57 237.65C357.03 239.48 355.7 239.69 354.61 238.13Z" />
	</g>
	<g id="Folder 1 copy 3">
		<path id="Shape 2" class="shp1" d="M117.57 238.57L228.28 127.85" />
		<path id="Shape 2 copy" class="shp1" d="M139.02 260.02L265.82 133.22" />
		<path id="Shape 2 copy 2" class="shp1" d="M159.43 280.43L276.6 163.72" />
		<path id="Shape 2 copy 3" class="shp1" d="M180.53 301.54L307.34 174.73" />
		<path id="Shape 2 copy 4" class="shp1" d="M201.99 322.99L312.7 212.27" />
		<path id="Shape 2 copy 5" class="shp1" d="M222.4 343.4L321 244.66" />
		<path id="Shape 1" class="shp1" d="M52.87 200.86L203.02 50.7C212.59 41.13 228.05 41.13 237.62 50.7L387.43 200.51L435.87 248.95C445.43 258.51 445.43 273.98 435.87 283.55L285.71 433.7C276.15 443.27 260.68 443.27 251.11 433.7L52.87 235.45C43.3 225.89 43.3 210.42 52.87 200.86Z" />
		<path id="Shape 3" class="shp1" d="M301 52" />
		<path id="Shape 3" class="shp1" d="" />
		<path id="Shape 3" class="shp1" d="" />
		<path id="Shape 3" class="shp1" d="" />
		<path id="Shape 3" class="shp1" d="" />
		<path id="Shape 2" class="shp4" d="M325.6 66.68L332.26 65.61C335.32 65.12 338.28 67.69 338.86 71.35L361.26 211.47C361.84 215.13 359.84 218.49 356.77 218.98L350.11 220.04C347.04 220.53 344.09 217.97 343.5 214.3L321.11 74.19C320.52 70.53 322.53 67.17 325.6 66.68Z" />
		<path id="Shape 2" class="shp1" d="M354.61 238.13L345.09 224.46C343.99 222.9 344.44 221.42 346.08 221.16L360.4 218.87C362.03 218.61 362.92 219.88 362.37 221.7L357.57 237.65C357.03 239.48 355.7 239.69 354.61 238.13Z" />
	</g>
	<g id="Folder 1 copy 4">
		<path id="Shape 2" class="shp1" d="M603.57 757.57L714.28 646.85" />
		<path id="Shape 2 copy" class="shp1" d="M625.02 779.02L751.82 652.22" />
		<path id="Shape 2 copy 2" class="shp1" d="M645.43 799.43L762.6 682.72" />
		<path id="Shape 2 copy 3" class="shp1" d="M666.53 820.54L793.34 693.73" />
		<path id="Shape 2 copy 4" class="shp1" d="M687.99 841.99L798.7 731.27" />
		<path id="Shape 2 copy 5" class="shp1" d="M708.4 862.4L807 763.66" />
		<path id="Shape 1" class="shp1" d="M538.87 719.86L689.02 569.7C698.59 560.13 714.05 560.13 723.62 569.7L873.43 719.51L921.87 767.95C931.43 777.51 931.43 792.98 921.87 802.55L771.71 952.7C762.15 962.27 746.68 962.27 737.11 952.7L538.87 754.45C529.3 744.89 529.3 729.42 538.87 719.86Z" />
		<path id="Shape 3" class="shp1" d="M787 571" />
		<path id="Shape 3" class="shp1" d="" />
		<path id="Shape 3" class="shp1" d="" />
		<path id="Shape 3" class="shp1" d="" />
		<path id="Shape 3" class="shp1" d="" />
		<path id="Shape 2" class="shp4" d="M811.6 585.68L818.26 584.61C821.32 584.12 824.28 586.69 824.86 590.35L847.26 730.47C847.84 734.13 845.84 737.49 842.77 737.98L836.11 739.04C833.04 739.53 830.09 736.97 829.5 733.3L807.11 593.19C806.52 589.53 808.53 586.17 811.6 585.68Z" />
		<path id="Shape 2" class="shp1" d="M840.61 757.13L831.09 743.46C829.99 741.9 830.44 740.42 832.08 740.16L846.4 737.87C848.03 737.61 848.92 738.88 848.37 740.7L843.57 756.65C843.03 758.48 841.7 758.69 840.61 757.13Z" />
	</g>
</svg>